<?xml version="1.0" encoding="UTF-8" standalone="no"?>
<!DOCTYPE svg PUBLIC "-//W3C//DTD SVG 1.1//EN" "http://www.w3.org/Graphics/SVG/1.1/DTD/svg11.dtd">
<svg width="100%" height="100%" viewBox="0 0 1056 263" version="1.1" xmlns="http://www.w3.org/2000/svg" xmlns:xlink="http://www.w3.org/1999/xlink" xml:space="preserve" xmlns:serif="http://www.serif.com/" style="fill-rule:evenodd;clip-rule:evenodd;stroke-linejoin:round;stroke-miterlimit:2;">
    <g transform="matrix(1,0,0,1,-473.849,-989.95)">
        <g transform="matrix(12.3505,0,0,0.985136,-18378.8,21.3376)">
            <rect x="1526.46" y="983.228" width="85.495" height="266.161" style="fill:white;"/>
        </g>
        <g>
            <g transform="matrix(4.16667,0,0,4.16667,473.849,1092.99)">
                <rect x="0" y="17.068" width="253.418" height="4.064" style="fill:rgb(255,210,0);"/>
            </g>
            <g transform="matrix(4.16667,0,0,4.16667,552.993,1139.81)">
                <path d="M0,-23.036L-12.36,-14.857L-12.36,-23.036L-18.977,-23.036L-18.977,0L-12.36,0L-12.36,-8.698L0.881,0L12.935,0L-4.994,-11.515L11.691,-23.036L0,-23.036Z" style="fill:rgb(88,86,85);fill-rule:nonzero;"/>
            </g>
            <g transform="matrix(4.16667,0,0,4.16667,670.498,1043.82)">
                <path d="M-6.479,23.037L6.451,23.037C13.088,23.037 13.088,17.945 13.088,14.339L13.088,0L6.451,0.001L6.451,16.777C6.447,17.386 -6.479,17.386 -6.479,16.777L-6.479,0.001L-13.117,0L-13.117,14.339C-13.117,17.945 -13.117,23.037 -6.479,23.037Z" style="fill:rgb(88,86,85);fill-rule:nonzero;"/>
            </g>
            <g transform="matrix(4.16667,0,0,4.16667,744.327,1139.81)">
                <path d="M0,-23.037L22.128,-23.037L22.128,-16.876L6.62,-16.876L6.62,-13.676L21.515,-13.676L21.515,-8.699L6.62,-8.699L6.62,0L0,0L0,-23.037Z" style="fill:rgb(88,86,85);fill-rule:nonzero;"/>
            </g>
            <g transform="matrix(4.16667,0,0,4.16667,855.757,1139.81)">
                <path d="M0,-23.037L22.128,-23.037L22.128,-16.876L6.62,-16.876L6.62,-13.676L21.515,-13.676L21.515,-8.699L6.62,-8.699L6.62,0L0,0L0,-23.037Z" style="fill:rgb(88,86,85);fill-rule:nonzero;"/>
            </g>
            <g transform="matrix(4.16667,0,0,4.16667,1186.96,1114.14)">
                <path d="M0,-10.715C0,-16.876 -6.712,-16.876 -12.912,-16.876L-25.606,-16.876L-25.606,6.161L-18.986,6.161L-18.986,-2.537L-7.258,-2.537C-6.712,-2.537 -6.751,-1.386 -6.751,-1.386L-6.712,6.161L0,6.161L0,-1.217C0,-3.35 -1.299,-3.993 -1.299,-3.993C-1.299,-3.993 0,-5.358 0,-8.696L0,-10.715ZM-7.371,-7.515L-18.986,-7.515L-18.986,-10.715L-7.371,-10.715C-6.361,-10.715 -6.317,-7.515 -7.371,-7.515" style="fill:rgb(88,86,85);fill-rule:nonzero;"/>
            </g>
            <g transform="matrix(4.16667,0,0,4.16667,967.114,1043.82)">
                <path d="M0,23.037L0,0L22.596,0L22.596,6.161L6.62,6.161L6.62,9.361L21.898,9.361L21.898,14.339L6.62,14.339L6.597,16.878L22.548,16.878L22.548,23.037L0,23.037Z" style="fill:rgb(88,86,85);fill-rule:nonzero;"/>
            </g>
            <g transform="matrix(4.16667,0,0,4.16667,1271.57,1139.81)">
                <path d="M0,-23.037L-5.629,-23.037L-19.254,0L-11.767,0L-9.567,-3.721L3.938,-3.721L6.138,0L13.625,0L0,-23.037ZM-6.447,-8.699L-2.734,-15.002L0.978,-8.699L-6.447,-8.699Z" style="fill:rgb(88,86,85);fill-rule:nonzero;"/>
            </g>
            <g transform="matrix(4.16667,0,0,4.16667,1305.96,1114.14)">
                <path d="M0,-10.715L-3.644,-16.876L24.01,-16.876L24.01,-10.715L14.33,-10.766L14.325,6.161L7.677,6.16L7.659,-10.698L0,-10.715Z" style="fill:rgb(88,86,85);fill-rule:nonzero;"/>
            </g>
            <g transform="matrix(4.16667,0,0,4.16667,1420.55,1139.81)">
                <path d="M0,-23.037L6.637,-23.037L6.637,-14.857L19.573,-14.857L19.573,-23.037L26.211,-23.037L26.211,0L19.573,0L19.573,-8.699L6.637,-8.699L6.637,0L0,0L0,-23.037Z" style="fill:rgb(88,86,85);fill-rule:nonzero;"/>
            </g>
            <g transform="matrix(4.16667,0,0,4.16667,473.849,1240.87)">
                <path d="M0,-8.253L0,-6.201L3.556,-6.201L3.556,0L6.087,0L6.087,-6.201L9.643,-6.201L9.643,-8.253L0,-8.253Z" style="fill:rgb(88,86,85);fill-rule:nonzero;"/>
            </g>
            <g transform="matrix(4.16667,0,0,4.16667,512.697,1230.09)">
                <path d="M0,-0.638C0,-1.17 0.063,-1.613 0.188,-1.966C0.314,-2.32 0.494,-2.593 0.729,-2.787C0.965,-2.98 1.244,-3.117 1.567,-3.198C1.89,-3.277 2.265,-3.317 2.691,-3.317L4.218,-3.317C4.826,-3.317 5.333,-3.279 5.739,-3.203C6.146,-3.127 6.478,-2.998 6.737,-2.815C6.995,-2.633 7.187,-2.38 7.312,-2.058C7.437,-1.734 7.501,-1.319 7.501,-0.809L7.501,0.171L2.188,0.171L2.188,0.524C2.188,0.821 2.294,1.026 2.502,1.14C2.711,1.254 3.055,1.311 3.534,1.311L4.206,1.311C4.495,1.311 4.723,1.294 4.891,1.26C5.057,1.225 5.181,1.178 5.26,1.117C5.341,1.056 5.391,0.989 5.414,0.918C5.437,0.845 5.449,0.756 5.449,0.65L7.501,0.65L7.501,0.901C7.501,1.25 7.428,1.543 7.284,1.778C7.139,2.014 6.936,2.196 6.674,2.325C6.412,2.454 6.109,2.546 5.768,2.599C5.426,2.652 5.042,2.679 4.617,2.679L2.976,2.679C2.557,2.679 2.179,2.648 1.841,2.588C1.503,2.527 1.193,2.402 0.912,2.211C0.631,2.021 0.408,1.74 0.246,1.368C0.082,0.995 0,0.513 0,-0.08L0,-0.638ZM5.38,-1.129C5.38,-1.47 5.277,-1.692 5.073,-1.795C4.867,-1.898 4.438,-1.949 3.784,-1.949C3.405,-1.949 3.114,-1.938 2.912,-1.915C2.711,-1.892 2.557,-1.854 2.451,-1.801C2.344,-1.748 2.274,-1.67 2.24,-1.567C2.206,-1.465 2.188,-1.319 2.188,-1.129L5.38,-1.129Z" style="fill:rgb(88,86,85);fill-rule:nonzero;"/>
            </g>
            <g transform="matrix(4.16667,0,0,4.16667,557.58,1224.2)">
                <path d="M0,2.188C0,2.279 0.013,2.355 0.04,2.416C0.067,2.477 0.125,2.53 0.216,2.576C0.308,2.621 0.446,2.657 0.632,2.684C0.819,2.711 1.06,2.724 1.356,2.724L2.131,2.724C2.656,2.724 3.003,2.695 3.175,2.638C3.346,2.581 3.431,2.465 3.431,2.29C3.431,2.116 3.366,1.992 3.237,1.92C3.108,1.848 2.857,1.811 2.484,1.811L0.433,1.811C-0.091,1.804 -0.521,1.768 -0.855,1.704C-1.189,1.639 -1.456,1.53 -1.653,1.379C-1.85,1.227 -1.993,1.021 -2.08,0.763C-2.168,0.505 -2.211,0.171 -2.211,-0.24C-2.211,-0.589 -2.145,-0.876 -2.012,-1.101C-1.879,-1.325 -1.695,-1.494 -1.459,-1.608C-1.224,-1.721 -0.95,-1.8 -0.638,-1.841C-0.327,-1.883 0.038,-1.904 0.456,-1.904L1.984,-1.904C2.713,-1.904 3.296,-1.875 3.733,-1.819C4.17,-1.762 4.506,-1.666 4.742,-1.534C4.977,-1.401 5.139,-1.226 5.226,-1.009C5.313,-0.793 5.361,-0.502 5.368,-0.137L3.18,-0.137C3.15,-0.229 3.108,-0.298 3.055,-0.348C3.001,-0.397 2.92,-0.437 2.809,-0.468C2.7,-0.498 2.549,-0.517 2.359,-0.525C2.17,-0.532 1.9,-0.536 1.55,-0.536C0.904,-0.536 0.492,-0.513 0.313,-0.468C0.135,-0.422 0.046,-0.3 0.046,-0.103C0.046,0.026 0.127,0.115 0.291,0.165C0.454,0.214 0.809,0.239 1.356,0.239L2.873,0.239C3.503,0.239 4.01,0.288 4.394,0.387C4.778,0.486 5.061,0.621 5.244,0.792C5.426,0.963 5.546,1.155 5.602,1.368C5.659,1.58 5.688,1.842 5.688,2.154C5.688,2.549 5.64,2.87 5.546,3.117C5.45,3.364 5.291,3.558 5.067,3.698C4.842,3.839 4.532,3.94 4.138,4.001C3.742,4.061 3.222,4.092 2.576,4.092L0.502,4.092C-0.517,4.092 -1.231,3.953 -1.641,3.676C-2.052,3.398 -2.257,2.902 -2.257,2.188L0,2.188Z" style="fill:rgb(88,86,85);fill-rule:nonzero;"/>
            </g>
            <g transform="matrix(4.16667,0,0,4.16667,588.829,1229)">
                <path d="M0,-1.391L-1.094,-1.391L-1.094,-2.964L0,-2.964L0,-4.331L2.188,-4.331L2.188,-2.964L5.586,-2.964L5.586,-1.391L2.188,-1.391L2.188,0.843C2.188,1.048 2.257,1.187 2.394,1.259C2.53,1.331 2.743,1.367 3.032,1.367C3.382,1.367 3.619,1.318 3.745,1.219C3.87,1.12 3.933,0.938 3.933,0.672L3.933,0.284L5.848,0.284L5.848,0.991C5.848,1.576 5.644,2.047 5.238,2.405C4.831,2.761 4.21,2.94 3.374,2.94L2.508,2.94C2.15,2.94 1.824,2.908 1.527,2.844C1.231,2.779 0.967,2.671 0.735,2.519C0.504,2.367 0.323,2.158 0.194,1.892C0.064,1.626 0,1.299 0,0.912L0,-1.391Z" style="fill:rgb(88,86,85);fill-rule:nonzero;"/>
            </g>
            <g transform="matrix(4.16667,0,0,4.16667,473.849,1195.2)">
                <path d="M36.988,4.417L34.799,4.417L34.799,2.708L36.988,2.708L36.988,4.417ZM36.988,10.96L34.799,10.96L34.799,5.146L36.988,5.146L36.988,10.96Z" style="fill:rgb(88,86,85);fill-rule:nonzero;"/>
            </g>
            <g transform="matrix(4.16667,0,0,4.16667,634.753,1240.5)">
                <path d="M0,-5.723L2.189,-5.723L2.189,-4.788L2.212,-4.788C2.394,-5.175 2.671,-5.444 3.044,-5.592C3.416,-5.74 3.914,-5.814 4.537,-5.814C4.993,-5.814 5.392,-5.793 5.734,-5.751C6.076,-5.71 6.404,-5.608 6.72,-5.45C7.035,-5.29 7.291,-5.031 7.489,-4.674C7.687,-4.317 7.785,-3.843 7.785,-3.249L7.785,0.091L5.597,0.091L5.597,-3.249C5.597,-3.819 5.126,-4.104 4.184,-4.104L3.682,-4.104C3.211,-4.104 2.844,-3.996 2.582,-3.779C2.32,-3.563 2.189,-3.249 2.189,-2.839L2.189,0.091L0,0.091L0,-5.723Z" style="fill:rgb(88,86,85);fill-rule:nonzero;"/>
            </g>
            <g transform="matrix(4.16667,0,0,4.16667,672.844,1239.83)">
                <path d="M0,-3.375C0,-4.241 0.214,-4.838 0.644,-5.164C1.073,-5.491 1.748,-5.654 2.667,-5.654L3.944,-5.654C4.232,-5.654 4.466,-5.643 4.644,-5.62C4.823,-5.598 4.979,-5.555 5.112,-5.495C5.245,-5.434 5.366,-5.348 5.477,-5.238C5.587,-5.128 5.714,-4.971 5.858,-4.765L5.882,-4.765L5.882,-5.563L7.933,-5.563L7.933,-0.115C7.933,0.228 7.895,0.537 7.82,0.814C7.743,1.091 7.595,1.34 7.375,1.561C7.154,1.781 6.833,1.956 6.412,2.085C5.989,2.214 5.452,2.279 4.799,2.279L2.382,2.279C1.591,2.279 1.01,2.15 0.639,1.891C0.266,1.633 0.079,1.158 0.079,0.467L2.336,0.467C2.336,0.763 2.515,0.911 2.873,0.911L4.457,0.911C4.951,0.911 5.312,0.816 5.539,0.626C5.768,0.436 5.882,0.102 5.882,-0.377L5.882,-0.765C5.654,-0.537 5.408,-0.378 5.146,-0.292C4.884,-0.204 4.476,-0.16 3.92,-0.16L2.769,-0.16C1.751,-0.16 1.035,-0.358 0.621,-0.753C0.207,-1.148 0,-1.756 0,-2.577L0,-3.375ZM4.525,-1.733C5.057,-1.733 5.412,-1.815 5.591,-1.978C5.769,-2.141 5.858,-2.448 5.858,-2.896C5.858,-3.352 5.769,-3.664 5.591,-3.831C5.412,-3.998 5.057,-4.081 4.525,-4.081L3.453,-4.081C2.921,-4.081 2.567,-3.998 2.388,-3.831C2.209,-3.664 2.12,-3.352 2.12,-2.896C2.12,-2.448 2.209,-2.141 2.388,-1.978C2.567,-1.815 2.921,-1.733 3.453,-1.733L4.525,-1.733Z" style="fill:rgb(88,86,85);fill-rule:nonzero;"/>
            </g>
            <g transform="matrix(4.16667,0,0,4.16667,728.079,1240.87)">
                <path d="M0,-8.253L9.643,-8.253L9.643,-6.201L6.087,-6.201L6.087,0L3.555,0L3.555,-6.201L0,-6.201L0,-8.253Z" style="fill:rgb(88,86,85);fill-rule:nonzero;"/>
            </g>
            <g transform="matrix(4.16667,0,0,4.16667,766.927,1230.09)">
                <path d="M0,-0.638C0,-1.17 0.063,-1.613 0.188,-1.966C0.314,-2.32 0.494,-2.593 0.73,-2.787C0.965,-2.98 1.244,-3.117 1.567,-3.198C1.89,-3.277 2.264,-3.317 2.69,-3.317L4.218,-3.317C4.825,-3.317 5.332,-3.279 5.739,-3.203C6.146,-3.127 6.478,-2.998 6.736,-2.815C6.995,-2.633 7.187,-2.38 7.312,-2.058C7.437,-1.734 7.5,-1.319 7.5,-0.809L7.5,0.171L2.188,0.171L2.188,0.524C2.188,0.821 2.293,1.026 2.502,1.14C2.711,1.254 3.055,1.311 3.534,1.311L4.206,1.311C4.495,1.311 4.723,1.294 4.89,1.26C5.057,1.225 5.181,1.178 5.26,1.117C5.34,1.056 5.392,0.989 5.415,0.918C5.437,0.845 5.448,0.756 5.448,0.65L7.5,0.65L7.5,0.901C7.5,1.25 7.428,1.543 7.283,1.778C7.139,2.014 6.936,2.196 6.674,2.325C6.412,2.454 6.109,2.546 5.767,2.599C5.426,2.652 5.042,2.679 4.616,2.679L2.975,2.679C2.557,2.679 2.179,2.648 1.841,2.588C1.502,2.527 1.193,2.402 0.912,2.211C0.631,2.021 0.408,1.74 0.245,1.368C0.081,0.995 0,0.513 0,-0.08L0,-0.638ZM5.38,-1.129C5.38,-1.47 5.278,-1.692 5.072,-1.795C4.867,-1.898 4.438,-1.949 3.784,-1.949C3.404,-1.949 3.113,-1.938 2.912,-1.915C2.711,-1.892 2.557,-1.854 2.451,-1.801C2.344,-1.748 2.274,-1.67 2.24,-1.567C2.206,-1.465 2.188,-1.319 2.188,-1.129L5.38,-1.129Z" style="fill:rgb(88,86,85);fill-rule:nonzero;"/>
            </g>
            <g transform="matrix(4.16667,0,0,4.16667,802.167,1230.09)">
                <path d="M0,-0.638C0,-1.17 0.063,-1.613 0.188,-1.966C0.314,-2.32 0.494,-2.593 0.729,-2.787C0.965,-2.98 1.244,-3.117 1.567,-3.198C1.89,-3.277 2.264,-3.317 2.69,-3.317L5.152,-3.317C5.988,-3.317 6.632,-3.159 7.084,-2.844C7.536,-2.528 7.762,-2.044 7.762,-1.391L7.762,-0.867L5.642,-0.867C5.642,-1.163 5.549,-1.372 5.363,-1.494C5.177,-1.615 4.848,-1.675 4.377,-1.675L3.534,-1.675C3.07,-1.675 2.73,-1.605 2.513,-1.465C2.297,-1.324 2.189,-1.098 2.189,-0.786L2.189,-0.011C2.189,0.346 2.289,0.598 2.491,0.746C2.692,0.895 2.979,0.969 3.351,0.969L4.468,0.969C4.818,0.969 5.101,0.918 5.318,0.815C5.534,0.712 5.642,0.54 5.642,0.296L5.642,0.159L7.762,0.159L7.762,0.673C7.762,1.045 7.692,1.362 7.551,1.624C7.411,1.886 7.219,2.094 6.976,2.246C6.733,2.398 6.461,2.507 6.161,2.576C5.861,2.644 5.543,2.679 5.209,2.679L2.975,2.679C2.557,2.679 2.179,2.648 1.841,2.588C1.503,2.527 1.193,2.402 0.912,2.211C0.631,2.021 0.408,1.74 0.245,1.368C0.081,0.995 0,0.513 0,-0.08L0,-0.638Z" style="fill:rgb(88,86,85);fill-rule:nonzero;"/>
            </g>
            <g transform="matrix(4.16667,0,0,4.16667,839.637,1240.87)">
                <path d="M0,-8.253L2.188,-8.253L2.188,-4.879L2.211,-4.879C2.394,-5.266 2.671,-5.534 3.044,-5.682C3.416,-5.831 3.914,-5.905 4.537,-5.905C4.993,-5.905 5.392,-5.884 5.734,-5.842C6.076,-5.8 6.404,-5.699 6.719,-5.54C7.035,-5.38 7.291,-5.122 7.49,-4.765C7.687,-4.407 7.785,-3.933 7.785,-3.34L7.785,0L5.597,0L5.597,-3.34C5.597,-3.91 5.126,-4.195 4.184,-4.195L3.682,-4.195C3.211,-4.195 2.844,-4.087 2.583,-3.87C2.32,-3.654 2.188,-3.34 2.188,-2.93L2.188,0L0,0L0,-8.253Z" style="fill:rgb(88,86,85);fill-rule:nonzero;"/>
            </g>
            <g transform="matrix(4.16667,0,0,4.16667,878.345,1240.5)">
                <path d="M0,-5.723L2.188,-5.723L2.188,-4.788L2.212,-4.788C2.393,-5.175 2.671,-5.444 3.044,-5.592C3.416,-5.74 3.913,-5.814 4.537,-5.814C4.993,-5.814 5.392,-5.793 5.734,-5.751C6.076,-5.71 6.404,-5.608 6.719,-5.45C7.035,-5.29 7.291,-5.031 7.489,-4.674C7.686,-4.317 7.785,-3.843 7.785,-3.249L7.785,0.091L5.597,0.091L5.597,-3.249C5.597,-3.819 5.126,-4.104 4.183,-4.104L3.682,-4.104C3.211,-4.104 2.844,-3.996 2.582,-3.779C2.32,-3.563 2.188,-3.249 2.188,-2.839L2.188,0.091L0,0.091L0,-5.723Z" style="fill:rgb(88,86,85);fill-rule:nonzero;"/>
            </g>
            <g transform="matrix(4.16667,0,0,4.16667,916.436,1231.66)">
                <path d="M0,-1.39C0,-1.846 0.068,-2.226 0.205,-2.53C0.342,-2.834 0.526,-3.071 0.758,-3.243C0.989,-3.414 1.244,-3.531 1.521,-3.596C1.799,-3.661 2.093,-3.693 2.405,-3.693L5.676,-3.693C5.988,-3.693 6.282,-3.661 6.559,-3.596C6.836,-3.531 7.091,-3.414 7.323,-3.243C7.555,-3.071 7.739,-2.834 7.876,-2.53C8.012,-2.226 8.081,-1.846 8.081,-1.39L8.081,0C8.081,0.456 8.012,0.837 7.876,1.14C7.739,1.444 7.555,1.681 7.323,1.852C7.091,2.024 6.836,2.141 6.559,2.206C6.282,2.271 5.988,2.303 5.676,2.303L2.405,2.303C2.093,2.303 1.799,2.271 1.521,2.206C1.244,2.141 0.989,2.024 0.758,1.852C0.526,1.681 0.342,1.444 0.205,1.14C0.068,0.837 0,0.456 0,0L0,-1.39ZM2.188,-0.421C2.188,-0.019 2.305,0.263 2.541,0.422C2.777,0.582 3.157,0.662 3.681,0.662L4.205,0.662C4.57,0.662 4.861,0.646 5.078,0.615C5.294,0.586 5.461,0.536 5.579,0.467C5.697,0.399 5.779,0.306 5.824,0.188C5.87,0.071 5.893,-0.091 5.893,-0.296L5.893,-1.094C5.893,-1.299 5.87,-1.463 5.824,-1.584C5.779,-1.705 5.697,-1.801 5.579,-1.869C5.461,-1.938 5.294,-1.985 5.078,-2.012C4.861,-2.038 4.57,-2.051 4.205,-2.051L3.681,-2.051C3.157,-2.051 2.777,-1.972 2.541,-1.812C2.305,-1.653 2.188,-1.371 2.188,-0.969L2.188,-0.421Z" style="fill:rgb(88,86,85);fill-rule:nonzero;"/>
            </g>
            <g transform="matrix(4.16667,0,0,4.16667,473.849,1195.21)">
                <rect x="115.784" y="2.707" width="2.188" height="8.253" style="fill:rgb(88,86,85);"/>
            </g>
            <g transform="matrix(4.16667,0,0,4.16667,971.575,1231.66)">
                <path d="M0,-1.39C0,-1.846 0.068,-2.226 0.205,-2.53C0.342,-2.834 0.526,-3.071 0.757,-3.243C0.989,-3.414 1.244,-3.531 1.521,-3.596C1.799,-3.661 2.093,-3.693 2.404,-3.693L5.676,-3.693C5.988,-3.693 6.282,-3.661 6.56,-3.596C6.837,-3.531 7.091,-3.414 7.323,-3.243C7.555,-3.071 7.739,-2.834 7.876,-2.53C8.013,-2.226 8.081,-1.846 8.081,-1.39L8.081,0C8.081,0.456 8.013,0.837 7.876,1.14C7.739,1.444 7.555,1.681 7.323,1.852C7.091,2.024 6.837,2.141 6.56,2.206C6.282,2.271 5.988,2.303 5.676,2.303L2.404,2.303C2.093,2.303 1.799,2.271 1.521,2.206C1.244,2.141 0.989,2.024 0.757,1.852C0.526,1.681 0.342,1.444 0.205,1.14C0.068,0.837 0,0.456 0,0L0,-1.39ZM2.188,-0.421C2.188,-0.019 2.306,0.263 2.541,0.422C2.777,0.582 3.157,0.662 3.682,0.662L4.206,0.662C4.57,0.662 4.861,0.646 5.078,0.615C5.294,0.586 5.461,0.536 5.58,0.467C5.697,0.399 5.779,0.306 5.824,0.188C5.87,0.071 5.893,-0.091 5.893,-0.296L5.893,-1.094C5.893,-1.299 5.87,-1.463 5.824,-1.584C5.779,-1.705 5.697,-1.801 5.58,-1.869C5.461,-1.938 5.294,-1.985 5.078,-2.012C4.861,-2.038 4.57,-2.051 4.206,-2.051L3.682,-2.051C3.157,-2.051 2.777,-1.972 2.541,-1.812C2.306,-1.653 2.188,-1.371 2.188,-0.969L2.188,-0.421Z" style="fill:rgb(88,86,85);fill-rule:nonzero;"/>
            </g>
            <g transform="matrix(4.16667,0,0,4.16667,1010.28,1239.83)">
                <path d="M0,-3.375C0,-4.241 0.214,-4.838 0.644,-5.164C1.073,-5.491 1.748,-5.654 2.667,-5.654L3.944,-5.654C4.232,-5.654 4.466,-5.643 4.644,-5.62C4.823,-5.598 4.979,-5.555 5.112,-5.495C5.245,-5.434 5.366,-5.348 5.477,-5.238C5.587,-5.128 5.714,-4.971 5.859,-4.765L5.881,-4.765L5.881,-5.563L7.933,-5.563L7.933,-0.115C7.933,0.228 7.895,0.537 7.82,0.814C7.743,1.091 7.595,1.34 7.374,1.561C7.154,1.781 6.833,1.956 6.411,2.085C5.989,2.214 5.452,2.279 4.799,2.279L2.382,2.279C1.592,2.279 1.011,2.15 0.638,1.891C0.265,1.633 0.08,1.158 0.08,0.467L2.336,0.467C2.336,0.763 2.515,0.911 2.872,0.911L4.457,0.911C4.951,0.911 5.312,0.816 5.54,0.626C5.768,0.436 5.881,0.102 5.881,-0.377L5.881,-0.765C5.653,-0.537 5.408,-0.378 5.146,-0.292C4.884,-0.204 4.475,-0.16 3.921,-0.16L2.77,-0.16C1.751,-0.16 1.035,-0.358 0.621,-0.753C0.207,-1.148 0,-1.756 0,-2.577L0,-3.375ZM4.525,-1.733C5.057,-1.733 5.412,-1.815 5.591,-1.978C5.77,-2.141 5.859,-2.448 5.859,-2.896C5.859,-3.352 5.77,-3.664 5.591,-3.831C5.412,-3.998 5.057,-4.081 4.525,-4.081L3.453,-4.081C2.922,-4.081 2.566,-3.998 2.388,-3.831C2.209,-3.664 2.12,-3.352 2.12,-2.896C2.12,-2.448 2.209,-2.141 2.388,-1.978C2.566,-1.815 2.922,-1.733 3.453,-1.733L4.525,-1.733Z" style="fill:rgb(88,86,85);fill-rule:nonzero;"/>
            </g>
            <g transform="matrix(4.16667,0,0,4.16667,1054.26,1222.64)">
                <path d="M0,4.969L0.183,4.969C0.653,4.969 1.009,4.909 1.248,4.787C1.488,4.665 1.607,4.445 1.607,4.126L0.832,4.126L-1.835,-1.437L0.536,-1.437L2.212,2.61L3.887,-1.437L6.258,-1.437L2.997,5.448C2.83,5.797 2.578,6.045 2.24,6.189C1.902,6.333 1.452,6.406 0.889,6.406C0.7,6.406 0.471,6.394 0.205,6.372C0.098,6.364 0.031,6.36 0,6.36L0,4.969Z" style="fill:rgb(88,86,85);fill-rule:nonzero;"/>
            </g>
            <g transform="matrix(4.16667,0,0,4.16667,1191.02,1234.94)">
                <path d="M0,-3.404C0,-4.224 0.113,-4.905 0.34,-5.446C0.565,-5.988 0.89,-6.411 1.317,-6.716C1.742,-7.02 2.257,-7.233 2.861,-7.354C3.466,-7.475 4.189,-7.536 5.03,-7.536L10.296,-7.536C11.264,-7.536 12.049,-7.451 12.654,-7.284C13.258,-7.115 13.715,-6.876 14.025,-6.567C14.336,-6.256 14.545,-5.885 14.655,-5.454C14.766,-5.023 14.822,-4.497 14.822,-3.877L14.822,-3.515L11.384,-3.515C11.384,-4.04 11.247,-4.385 10.974,-4.548C10.7,-4.711 10.249,-4.792 9.618,-4.792L5.818,-4.792C5.356,-4.792 4.985,-4.758 4.708,-4.689C4.429,-4.621 4.208,-4.502 4.045,-4.334C3.882,-4.167 3.767,-3.93 3.698,-3.625C3.629,-3.32 3.595,-2.915 3.595,-2.412L3.595,-0.991C3.595,-0.487 3.629,-0.083 3.698,0.222C3.767,0.527 3.882,0.763 4.045,0.931C4.208,1.1 4.429,1.218 4.708,1.286C4.985,1.354 5.356,1.388 5.818,1.388L9.556,1.388C9.818,1.388 10.055,1.373 10.265,1.341C10.475,1.31 10.665,1.253 10.833,1.168C11,1.084 11.134,0.957 11.235,0.789C11.335,0.622 11.384,0.405 11.384,0.144L11.384,-0.187L7.032,-0.187L7.032,-2.553L14.884,-2.553L14.884,0.695C14.884,1.504 14.776,2.14 14.562,2.602C14.346,3.065 14.017,3.407 13.576,3.628C13.134,3.848 12.591,3.988 11.944,4.045C11.297,4.103 10.396,4.132 9.241,4.132L5.03,4.132C4.189,4.132 3.466,4.069 2.861,3.943C2.257,3.816 1.742,3.604 1.317,3.304C0.89,3.005 0.565,2.584 0.34,2.043C0.113,1.501 0,0.821 0,0.001L0,-3.404Z" style="fill:rgb(88,86,85);fill-rule:nonzero;"/>
            </g>
            <g transform="matrix(4.16667,0,0,4.16667,1261.85,1251.63)">
                <path d="M0,-11.416L10.564,-11.416C11.227,-11.416 11.778,-11.337 12.219,-11.179C12.661,-11.022 13.01,-10.796 13.267,-10.502C13.525,-10.208 13.708,-9.855 13.82,-9.445C13.93,-9.035 13.985,-8.562 13.985,-8.026L13.985,-7.3C13.985,-6.481 13.852,-5.852 13.583,-5.417C13.314,-4.98 12.797,-4.673 12.029,-4.494L12.029,-4.463C12.324,-4.41 12.582,-4.334 12.802,-4.234C13.023,-4.134 13.22,-3.995 13.394,-3.816C13.567,-3.637 13.701,-3.393 13.796,-3.083C13.89,-2.773 13.938,-2.392 13.938,-1.939L13.938,0L10.437,0L10.437,-1.372C10.437,-1.971 10.335,-2.386 10.13,-2.618C9.925,-2.849 9.549,-2.964 9.003,-2.964L3.501,-2.964L3.501,0L0,0L0,-11.416ZM3.501,-5.803L9.287,-5.803C9.748,-5.803 10.08,-5.897 10.279,-6.087C10.479,-6.276 10.579,-6.581 10.579,-7.001L10.579,-7.38C10.579,-7.863 10.459,-8.184 10.217,-8.341C9.975,-8.499 9.56,-8.578 8.971,-8.578L3.501,-8.578L3.501,-5.803Z" style="fill:rgb(88,86,85);fill-rule:nonzero;"/>
            </g>
            <g transform="matrix(4.16667,0,0,4.16667,1328.92,1234.94)">
                <path d="M0,-3.404C0,-4.224 0.114,-4.905 0.34,-5.446C0.565,-5.988 0.891,-6.411 1.317,-6.716C1.743,-7.02 2.257,-7.233 2.862,-7.354C3.467,-7.475 4.19,-7.536 5.03,-7.536L10.643,-7.536C11.483,-7.536 12.207,-7.473 12.811,-7.346C13.416,-7.221 13.933,-7.007 14.365,-6.708C14.795,-6.408 15.122,-5.988 15.342,-5.446C15.562,-4.905 15.673,-4.224 15.673,-3.404L15.673,0.001C15.673,0.821 15.562,1.499 15.342,2.035C15.122,2.572 14.795,2.991 14.365,3.297C13.933,3.601 13.416,3.816 12.811,3.943C12.207,4.069 11.483,4.132 10.643,4.132L5.03,4.132C4.19,4.132 3.467,4.069 2.862,3.943C2.257,3.816 1.743,3.604 1.317,3.304C0.891,3.005 0.565,2.584 0.34,2.043C0.114,1.501 0,0.821 0,0.001L0,-3.404ZM3.595,-1.087C3.595,-0.225 3.73,0.372 3.998,0.703C4.266,1.034 4.799,1.199 5.597,1.199L10.076,1.199C10.873,1.199 11.408,1.034 11.675,0.703C11.944,0.372 12.078,-0.225 12.078,-1.087L12.078,-2.316C12.078,-3.094 11.928,-3.669 11.628,-4.043C11.329,-4.416 10.749,-4.603 9.887,-4.603L5.786,-4.603C4.925,-4.603 4.345,-4.416 4.045,-4.043C3.745,-3.669 3.595,-3.094 3.595,-2.316L3.595,-1.087Z" style="fill:rgb(88,86,85);fill-rule:nonzero;"/>
            </g>
            <g transform="matrix(4.16667,0,0,4.16667,1403.03,1252.15)">
                <path d="M0,-11.541L3.501,-11.541L3.501,-4.95C3.501,-4.225 3.647,-3.707 3.941,-3.397C4.235,-3.087 4.74,-2.932 5.456,-2.932L8.923,-2.932C9.638,-2.932 10.144,-3.087 10.437,-3.397C10.731,-3.707 10.879,-4.225 10.879,-4.95L10.879,-11.541L14.38,-11.541L14.38,-4.194C14.38,-2.764 13.999,-1.707 13.237,-1.025C12.475,-0.341 11.294,0 9.698,0L4.684,0C3.085,0 1.906,-0.341 1.143,-1.025C0.382,-1.707 0,-2.764 0,-4.194L0,-11.541Z" style="fill:rgb(88,86,85);fill-rule:nonzero;"/>
            </g>
            <g transform="matrix(4.16667,0,0,4.16667,1472.8,1251.63)">
                <path d="M0,-11.416L9.539,-11.416C10.35,-11.416 11.024,-11.321 11.565,-11.132C12.107,-10.943 12.531,-10.675 12.835,-10.328C13.141,-9.981 13.356,-9.574 13.48,-9.106C13.607,-8.638 13.67,-8.104 13.67,-7.506L13.67,-6.528C13.67,-6.076 13.615,-5.635 13.505,-5.204C13.393,-4.773 13.216,-4.382 12.97,-4.029C12.722,-3.677 12.388,-3.396 11.967,-3.186C11.546,-2.975 11.042,-2.871 10.452,-2.871L3.502,-2.871L3.502,0L0,0L0,-11.416ZM3.502,-5.709L8.94,-5.709C9.329,-5.709 9.616,-5.819 9.799,-6.04C9.984,-6.261 10.077,-6.554 10.077,-6.922L10.077,-7.364C10.077,-7.764 9.965,-8.065 9.745,-8.27C9.523,-8.475 9.155,-8.578 8.642,-8.578L3.502,-8.578L3.502,-5.709Z" style="fill:rgb(88,86,85);fill-rule:nonzero;"/>
            </g>
        </g>
    </g>
</svg>
