<?xml version="1.0" standalone="no"?>
<!DOCTYPE svg PUBLIC "-//W3C//DTD SVG 20010904//EN"
 "http://www.w3.org/TR/2001/REC-SVG-20010904/DTD/svg10.dtd">
<svg version="1.0" xmlns="http://www.w3.org/2000/svg"
 width="370.000000pt" height="142.000000pt" viewBox="0 0 370.000000 142.000000"
 preserveAspectRatio="xMidYMid meet">

<g transform="translate(0.000000,142.000000) scale(0.100000,-0.100000)"
fill="#000000" stroke="none">
<path d="M1153 980 c-29 -12 -51 -47 -58 -96 -5 -28 -14 -43 -28 -50 -32 -13
-31 -85 1 -99 20 -9 22 -16 22 -88 0 -72 2 -78 24 -88 17 -8 29 -8 45 0 19 10
21 20 21 91 l0 80 29 0 c34 0 54 20 54 55 0 39 -21 55 -69 55 -45 0 -74 24
-74 62 0 27 22 22 52 -12 29 -34 49 -37 72 -14 25 24 20 69 -10 93 -29 23 -46
25 -81 11z"/>
<path d="M1395 978 c-30 -17 -43 -38 -55 -90 -8 -31 -18 -48 -30 -51 -38 -10
-34 -107 4 -107 12 0 16 -17 18 -77 3 -72 5 -78 30 -92 24 -14 28 -14 47 3 18
16 21 31 21 93 0 71 1 73 24 73 47 0 70 46 46 91 -8 15 -21 19 -59 19 -41 0
-51 4 -65 25 -37 56 -7 74 42 25 17 -16 37 -30 46 -30 18 0 46 37 46 61 0 46
-73 82 -115 57z"/>
<path d="M2710 970 c-19 -19 -20 -33 -20 -200 0 -167 1 -181 20 -200 22 -22
37 -25 60 -10 11 6 16 33 20 91 5 86 19 109 54 96 13 -5 16 -21 16 -85 0 -64
4 -82 18 -95 23 -21 46 -22 66 -1 22 21 23 202 1 243 -29 56 -111 46 -130 -16
-16 -58 -25 -36 -25 66 0 77 -4 103 -16 115 -21 21 -40 20 -64 -4z"/>
<path d="M412 944 c-21 -15 -22 -21 -22 -189 0 -168 1 -174 22 -189 30 -21 44
-20 68 4 15 15 20 33 20 75 0 51 2 55 24 55 39 0 73 -34 79 -82 13 -94 107
-91 107 3 0 71 -49 129 -110 129 -32 0 -24 13 40 69 69 60 80 98 35 127 -23
15 -27 15 -50 0 -13 -9 -42 -43 -65 -75 -22 -33 -44 -62 -49 -65 -5 -3 -11 24
-13 60 -3 50 -9 70 -23 80 -24 18 -35 18 -63 -2z"/>
<path d="M2476 924 c-9 -8 -16 -29 -16 -45 0 -21 -5 -29 -18 -29 -24 0 -42
-19 -42 -45 0 -25 18 -45 41 -45 14 0 17 -13 21 -70 4 -82 27 -120 79 -134 48
-12 106 13 115 50 11 42 -7 59 -55 56 l-41 -2 0 50 c0 49 1 50 29 50 29 0 61
22 61 41 0 29 -22 49 -55 49 -32 0 -35 3 -35 29 0 34 -23 61 -50 61 -10 0 -26
-7 -34 -16z"/>
<path d="M764 836 c-17 -13 -19 -27 -19 -113 0 -108 13 -143 61 -165 32 -15
71 3 84 37 12 32 30 32 30 0 0 -33 38 -52 69 -36 20 11 21 19 21 142 0 127 -1
130 -24 140 -17 8 -29 8 -45 0 -18 -10 -21 -21 -21 -80 0 -38 -3 -83 -6 -100
-6 -27 -11 -32 -33 -29 -26 3 -26 5 -31 96 -4 78 -8 96 -24 108 -25 18 -37 18
-62 0z"/>
<path d="M1615 831 c-51 -23 -75 -65 -75 -131 0 -70 22 -107 77 -132 54 -24
117 -18 157 13 29 23 33 46 12 75 -12 16 -27 19 -87 19 -49 0 -73 4 -76 13 -4
9 14 12 66 12 58 0 75 4 91 20 25 25 25 37 0 77 -13 21 -31 35 -57 42 -51 14
-61 14 -108 -8z m86 -81 c33 -18 21 -30 -31 -30 -51 0 -64 11 -32 29 22 13 39
13 63 1z"/>
<path d="M1847 832 c-14 -15 -17 -41 -17 -134 0 -99 3 -117 18 -131 24 -22 45
-21 65 1 13 14 17 38 17 101 0 94 10 105 65 75 33 -17 35 -17 54 1 48 43 3
123 -55 97 -13 -7 -29 -23 -36 -37 -13 -29 -28 -33 -28 -7 0 22 -30 52 -52 52
-8 0 -22 -8 -31 -18z"/>
<path d="M2173 839 c-43 -13 -68 -50 -53 -78 12 -23 12 -23 90 -25 45 -1 55
-4 58 -20 4 -16 -1 -17 -46 -11 -94 13 -151 -36 -122 -106 26 -62 150 -61 150
2 0 11 5 19 10 19 6 0 10 -8 10 -18 0 -22 30 -52 52 -52 33 0 48 34 47 111 0
88 -15 135 -49 161 -30 22 -103 31 -147 17z m82 -169 c0 -23 -69 -20 -73 3 -3
16 2 18 35 15 26 -2 38 -8 38 -18z"/>
</g>
</svg>
